<svg xmlns="http://www.w3.org/2000/svg" width="473" height="106" viewBox="0 0 473 106" version="1.1"><path d="M -0 53.002 L -0 106.004 236.750 105.752 L 473.500 105.500 473.759 52.750 L 474.018 0 237.009 0 L 0 0 -0 53.002 M 421.270 19.054 C 379.101 27.377, 384.178 92, 427 92 C 458.174 92, 474.152 53.834, 452.771 30.440 C 446.206 23.257, 432.403 16.884, 426.066 18.110 C 425.755 18.170, 423.596 18.595, 421.270 19.054 M 18 55 L 18 91 30.634 91 C 49.608 91, 56.643 87.536, 62.694 75.214 L 65.500 69.500 65.495 55 C 65.485 27.480, 57.591 19.063, 31.750 19.022 L 18 19 18 55 M 92 19.462 C 92 19.716, 87.275 35.558, 81.500 54.666 C 75.725 73.774, 71 89.766, 71 90.204 C 71 91.980, 81.845 91.071, 82.368 89.250 C 82.644 88.287, 83.819 84.237, 84.978 80.250 L 87.085 73 97.475 73 C 106.512 73, 107.931 73.228, 108.368 74.750 C 108.644 75.713, 109.819 79.763, 110.978 83.750 L 113.085 91 118.542 91 C 121.544 91, 124 90.696, 124 90.325 C 124 89.953, 119.478 74.541, 113.952 56.075 C 108.426 37.609, 103.671 21.712, 103.385 20.750 C 102.909 19.147, 92 17.913, 92 19.462 M 120 23 L 120 27 129.500 27 L 139 27 139 59 L 139 91 144.500 91 L 150 91 150 59 L 150 27 159.500 27 L 169 27 169 23 L 169 19 144.500 19 L 120 19 120 23 M 179.041 53.250 C 173.360 72.088, 168.500 88.287, 168.240 89.250 C 167.831 90.764, 168.519 91, 173.341 91 L 178.915 91 181.022 83.750 C 182.181 79.763, 183.356 75.713, 183.632 74.750 C 184.069 73.228, 185.488 73, 194.525 73 L 204.915 73 207.022 80.250 C 208.181 84.237, 209.356 88.287, 209.632 89.250 C 210.166 91.107, 221 91.962, 221 90.147 C 221 89.432, 212.534 60.842, 202.374 27.250 L 199.879 19 194.624 19 L 189.369 19 179.041 53.250 M 225 55 L 225 91 245 91 L 265 91 265 87 L 265 83 250.500 83 L 236 83 236 51 L 236 19 230.500 19 L 225 19 225 55 M 288.555 27.250 C 266.887 98.491, 268.441 91, 275.331 91 L 280.661 91 283.095 82.250 L 285.529 73.500 296.120 73.218 L 306.711 72.935 309.195 81.718 L 311.678 90.500 317.423 90.802 C 322.563 91.073, 323.111 90.915, 322.630 89.302 C 322.334 88.311, 317.503 72.088, 311.895 53.250 L 301.700 19 296.382 19 L 291.064 19 288.555 27.250 M 330 55 L 330 91 344.851 91 C 367.630 91, 374.483 87.300, 376.490 73.916 C 377.711 65.773, 372.823 55.348, 366.903 53.469 L 364.930 52.843 367.586 50.754 C 374.382 45.408, 374.958 31.963, 368.683 25.118 C 364.134 20.155, 359.688 19.046, 344.250 19.022 L 330 19 330 55 M 29 55.022 L 29 83.263 36.373 82.790 C 50.621 81.875, 54.500 75.923, 54.500 54.973 L 54.500 41.447 51.994 36.577 C 48.295 29.389, 45.354 27.607, 36.449 27.158 L 29 26.781 29 55.022 M 341 38.394 L 341 50 346.250 49.994 C 367.078 49.972, 369.805 28.096, 349.097 27.156 L 341 26.788 341 38.394 M 93.695 49.851 C 91.663 56.889, 90 62.951, 90 63.323 C 90 63.696, 93.375 64, 97.500 64 C 101.625 64, 105 63.754, 105 63.454 C 105 62.821, 97.846 37.610, 97.572 37.278 C 97.472 37.156, 95.727 42.814, 93.695 49.851 M 191.103 48.828 C 189.240 55.248, 187.503 61.288, 187.242 62.250 C 186.820 63.805, 187.615 64, 194.383 64 C 198.573 64, 202 63.648, 202 63.218 C 202 62.433, 194.971 37.650, 194.657 37.328 C 194.565 37.233, 192.965 42.408, 191.103 48.828 M 295.079 40.773 C 294.437 43.123, 292.643 49.310, 291.093 54.523 L 288.275 64 296.157 64 L 304.038 64 303.468 61.750 C 303.155 60.513, 301.402 54.325, 299.573 48 L 296.248 36.500 295.079 40.773 M 419 55.500 L 419 74 427 74 L 435 74 435 55.500 L 435 37 427 37 L 419 37 419 55.500 M 438 64 L 438 74 446 74 L 454 74 454 64 L 454 54 446 54 L 438 54 438 64 M 341 70.622 L 341 83.245 349.873 82.820 C 365.375 82.079, 371.727 70.573, 362.003 60.850 L 359.154 58 350.077 58 L 341 58 341 70.622 M 400 67.500 L 400 74 408 74 L 416 74 416 67.500 L 416 61 408 61 L 400 61 400 67.500" stroke="none" fill="#ffffff" fill-rule="evenodd"/><path d="M 19 55.116 L 19 91.232 32.250 90.836 C 57.514 90.082, 65 81.891, 65 55 C 65 27.809, 56.514 19, 30.318 19 L 19 19 19 55.116 M 92.708 19.699 C 92.448 20.140, 87.623 35.800, 81.986 54.500 C 76.349 73.200, 71.513 89.088, 71.240 89.807 C 70.860 90.804, 72.017 91.041, 76.121 90.807 L 81.500 90.500 84 81.724 L 86.500 72.949 97.485 73.224 L 108.471 73.500 110.905 82.250 L 113.339 91 118.589 91 L 123.839 91 122.919 87.750 C 122.413 85.963, 117.601 69.875, 112.227 52 L 102.454 19.500 97.818 19.199 C 95.268 19.033, 92.968 19.258, 92.708 19.699 M 121 23 L 121 27 130.500 27 L 140 27 140 59 L 140 91 145 91 L 150 91 150 59 L 150 27 159.500 27 L 169 27 169 23 L 169 19 145 19 L 121 19 121 23 M 189.501 20.250 C 189.262 20.938, 184.533 36.575, 178.992 55 C 173.452 73.425, 168.726 89.063, 168.491 89.750 C 168.184 90.647, 169.561 91, 173.362 91 L 178.661 91 181.095 82.250 L 183.529 73.500 194.515 73.224 L 205.500 72.949 208 81.724 L 210.500 90.500 215.879 90.807 C 220.409 91.065, 221.163 90.868, 220.660 89.557 C 220.332 88.701, 215.450 72.476, 209.813 53.500 L 199.562 19 194.750 19 C 191.799 19, 189.769 19.484, 189.501 20.250 M 225 54.500 L 225 90 245 90 L 265 90 265 86.500 L 265 83 250 83 L 235 83 235 51 L 235 19 230 19 L 225 19 225 54.500 M 282.243 49.708 C 277.151 66.644, 272.335 82.638, 271.541 85.250 L 270.096 90 275.298 89.997 L 280.500 89.995 283 81.247 L 285.500 72.500 296.198 72.217 L 306.895 71.933 309.012 79.217 C 310.177 83.223, 311.356 87.287, 311.632 88.250 C 312.144 90.033, 322.016 90.986, 321.988 89.250 C 321.981 88.838, 317.315 72.975, 311.619 54 L 301.263 19.500 296.382 19.208 L 291.500 18.916 282.243 49.708 M 331 54.406 L 331 90 346.435 90 C 362.908 90, 365.860 89.406, 370.373 85.186 C 378.897 77.216, 377.530 59.912, 367.949 54.504 L 364.399 52.500 367.684 49.665 C 375.954 42.528, 373.721 27.073, 363.649 21.742 C 360.064 19.844, 357.562 19.496, 345.250 19.179 L 331 18.812 331 54.406 M 416.300 20.801 C 383.883 32.380, 384.469 80.188, 417.149 90.114 C 451.908 100.672, 477.529 55.477, 451.526 29.474 C 442.334 20.281, 427.784 16.699, 416.300 20.801 M 28.500 55 L 28.500 83.185 36.695 82.842 L 44.890 82.500 48.404 79.093 C 57.825 69.961, 57.825 40.039, 48.404 30.907 L 44.890 27.500 36.695 27.158 L 28.500 26.815 28.500 55 M 341 38.500 L 341 50 348.423 50 C 360.043 50, 365.121 44.022, 362.091 33.909 C 360.530 28.698, 357.079 27, 348.050 27 L 341 27 341 38.500 M 93.581 48.727 C 91.543 55.752, 89.648 62.288, 89.370 63.250 C 88.917 64.821, 89.753 65, 97.540 65 C 104.064 65, 106.097 64.690, 105.743 63.750 C 105.483 63.063, 103.597 56.650, 101.551 49.500 C 99.505 42.350, 97.709 36.377, 97.559 36.227 C 97.409 36.076, 95.619 41.701, 93.581 48.727 M 190.514 49.228 C 188.437 56.528, 186.524 63.063, 186.262 63.750 C 185.904 64.690, 187.920 65, 194.393 65 C 199.127 65, 203 64.887, 203 64.748 C 203 63.970, 195 36.667, 194.677 36.344 C 194.464 36.131, 192.590 41.928, 190.514 49.228 M 293.628 44.147 C 289.607 57.588, 288 63.307, 288 64.182 C 288 64.632, 291.873 65, 296.607 65 C 303.077 65, 305.097 64.690, 304.743 63.750 C 304.483 63.063, 302.597 56.650, 300.551 49.500 C 298.505 42.350, 296.673 36.341, 296.479 36.147 C 296.286 35.953, 295.003 39.553, 293.628 44.147 M 418 55.333 C 418 76.890, 416.843 74.575, 427.412 74.177 L 436 73.853 436 55.427 L 436 37 427 37 L 418 37 418 55.333 M 437 63.833 C 437 75.655, 436.011 74.568, 446.412 74.177 L 455 73.853 455 63.927 L 455 54 446 54 L 437 54 437 63.833 M 341 70 L 341 83 350.100 83 L 359.200 83 362.600 79.600 C 372.577 69.623, 364.944 57, 348.935 57 L 341 57 341 70 M 399.206 67.250 C 399.368 71.237, 399.837 74.388, 400.250 74.250 C 400.663 74.112, 404.600 74, 409 74 L 417 74 417 67 L 417 60 407.956 60 L 398.912 60 399.206 67.250" stroke="none" fill="#3f5a75" fill-rule="evenodd"/><path d="" stroke="none" fill="#f9fafa" fill-rule="evenodd"/></svg>